# xmcd CD database file
#
# Track frame offsets:
#	150
#	23651
#	38472
#	61142
#	79039
#	100045
#	109833
#	122625
#	142791
#	166205
#
# Disc length: 2372 seconds
#
# Revision: 0
# Processed by: cddbd v1.5.2PL0 Copyright (c) Steve Scherf et al.
# Submitted via: CDex 1.70beta2
#
DISCID=6a09420a
DTITLE=Denseland - Chunk
DYEAR=2009
DGENRE=Jazz
TTITLE0=Monk
TTITLE1=Frozen Chunk
TTITLE2=Low Velocity Zone
TTITLE3=Obsidian
TTITLE4=Cumulus Crowds
TTITLE5=Alluvial News
TTITLE6=Scrape It (Up)
TTITLE7=Rev Elation
TTITLE8=Chant Bleu
TTITLE9=Cyclone's Center
EXTD=YEAR: 2009
EXTT0=
EXTT1=
EXTT2=
EXTT3=
EXTT4=
EXTT5=
EXTT6=
EXTT7=
EXTT8=
EXTT9=
PLAYORDER=
